<svg xmlns="http://www.w3.org/2000/svg" viewBox="0 0 429 429"><defs><style>.cls-1{fill:red;}.cls-2{fill:#fff;}.cls-3{fill:#ea2d2d;}</style></defs><g id="Capa_2" data-name="Capa 2"><g id="Capa_1-2" data-name="Capa 1"><path class="cls-1" d="M417,0H12A12,12,0,0,0,0,12V417a12,12,0,0,0,12,12H417a12,12,0,0,0,12-12V12A12,12,0,0,0,417,0ZM324.48,79.73l-.37.08-1.83.39a37.35,37.35,0,0,1-8,1.18,23,23,0,0,1-6.57-.86l-.33-.1.29-.27a11.18,11.18,0,0,1,7.78-3.07,14.49,14.49,0,0,1,8.59,2.36ZM203.06,177.47q29.37,55.77,61.54,98.87l.08.11a369.53,369.53,0,0,0,21.17,63.88q16.66-42.54,27.61-102.65c0,.26,0,.51,0,.76q-1.37,24-1.37,43,0,11.08,1.12,27.53l0,.37q.23,3.38.41,6.3c0,.42.05.83.08,1.24,0,.57.07,1.12.1,1.67s0,.81.07,1.21c.05.9.1,1.76.14,2.58.19,3.81.29,6.63.29,8.48q0,20.19-16.44,20.2-10.44,0-22.22-10.63-9.83-9-26-31.12-7.72-10.69-15.22-21.77l-.09-.46q-5.94-29.48-10.68-67.89-6,17.94-11.59,33.5c0,.07-.05.13-.07.2q-10.87-17.6-21.23-36l-.1-.17q5-15.07,10.12-31.9,1.09-3.57,2.19-7.45Zm-88.31,174q-7.32-10.62-15.45-29.71l0-.05c0-.11,0-.21,0-.32q-.12-4.54-.12-10.21a788.44,788.44,0,0,1,6.47-97.34s0-.06,0-.09q7.82,52.5,25.52,94c0,.09,0,.19,0,.28q-.84,27-1.32,29.48-2.25,14.37-14.06,14.36l-.75,0C114.92,351.77,114.83,351.65,114.75,351.52ZM134.5,85.4A20.27,20.27,0,0,1,140.88,80c.2-.11.41-.21.62-.3a11.45,11.45,0,0,1-.56,1,12.36,12.36,0,0,1-6.38,5.37c-.28.11-.57.21-.86.3C134,86.08,134.23,85.73,134.5,85.4Z"/><path class="cls-2" d="M99.29,321.49s0,0,0-.05l0-.05c0,.22,0,.44,0,.65a89,89,0,0,0,1.2,13.8q3.25,14.9,14,15.66l.23,0H115Q107.56,340.9,99.29,321.49ZM325.17,80c-.23-.2-.47-.41-.72-.6l-.37.08-.4.08-1.43.31a37.35,37.35,0,0,1-8,1.18,23.29,23.29,0,0,1-6.24-.76l-.34-.1-.32-.1c-.18.17-.35.35-.53.53a21.2,21.2,0,0,0-3.37,5q-4,8.08-7.33,27.38-14.07,80.94-14.06,174.3v11.07q-8.82-10.65-17.45-22.21A369.53,369.53,0,0,0,285.82,340q16.67-42.54,27.61-102.65,1.54-26.4,4.72-58.86,2.4-23.19,7.48-53.41,4.2-24.84,4.19-30.82Q329.82,84.28,325.17,80ZM223.62,218.79q-6.08,18.06-11.66,33.7l.1.17.11.16Q223,270.31,234.27,287l.06.09.06.09Q228.41,257.5,223.62,218.79ZM170.84,110.38Q160.51,86.89,160.2,86.59q-4.63-8.39-11.68-8.38a16.43,16.43,0,0,0-7,1.52,11.45,11.45,0,0,1-.56,1,12.36,12.36,0,0,1-6.38,5.37c-.28.11-.57.21-.86.3a35.42,35.42,0,0,0-3,4.93q-5.68,11.23-11.37,38.9-8.77,43.41-13.72,83.16,7.82,52.5,25.52,94,.23-7.1.47-15.87,2.83-98.74,18.4-154.85,19.27,41.58,40.64,79.58,5-15.07,10.12-31.9,1.09-3.57,2.19-7.45Q186.46,145.65,170.84,110.38Z"/><path d="M128.27,53.37Q113,47,87.77,47,33.53,47,33.54,67.52q0,17.46,17,17.45a37,37,0,0,0,6.77-1,88.89,88.89,0,0,1,9-1.53v12.2q0,139.14,25.59,208.62,3.8,10.23,7.43,18.79l0,.09c0-.11,0-.21,0-.32s0-.21,0-.32c-.08-2.95-.11-6.25-.11-9.89a788,788,0,0,1,6.48-97.43c0-.09,0-.19,0-.28a611.59,611.59,0,0,1-6.16-89.77l.68-42.37A81.2,81.2,0,0,1,114.88,85q8.31,2.39,12.38,2.38a20.82,20.82,0,0,0,6.44-.91c.26-.36.53-.71.8-1A20.27,20.27,0,0,1,140.88,80c.2-.11.41-.21.62-.3a23.88,23.88,0,0,0,2-10.52Q143.52,59.73,128.27,53.37Zm253.19-.6q-15.25-8.13-38.3-8.13-45.42,0-45.42,19.83,0,12.81,9.12,16.11a5.89,5.89,0,0,0,.59.21c.1-.09.2-.19.3-.27a3.65,3.65,0,0,1,.3-.27,11.11,11.11,0,0,1,7.47-2.8,14.84,14.84,0,0,1,8.16,2.07c.15.09.29.19.43.29s.27.19.4.29l.66-.14A51.79,51.79,0,0,1,331,79q-5,90.81-17.47,159-1.41,24.49-1.41,43.77,0,11.08,1.12,27.53.23,3.38.41,6.3c0,.42.05.83.08,1.24,0,.57.07,1.12.1,1.67s0,.81.07,1.21c.05.9.1,1.76.14,2.58.22,4,.32,6.94.32,8.85q0,20.19-16.44,20.2-10.44,0-22.22-10.63-9.82-9-26-31.12-7.72-10.69-15.22-21.77,19.56,97.23,51.77,97.23,14.91,0,25.76-22.88,41.34-88.12,52.36-279.8c2.6,1.13,4,1.7,4.07,1.7,1.36.56,3.16,1.18,5.42,1.86a22.38,22.38,0,0,0,6.44,1q5.76,0,10.51-5.09a16.07,16.07,0,0,0,4.75-11.18Q395.53,60.41,381.46,52.77ZM264.6,276.34q-12.47-52.87-12.45-115.44,0-1.36.17-7.21c.12-3.89.17-7.25.17-10.08q0-26.27-2.54-34.57-3.73-11.7-16.1-11.69-8.81,0-13.39,10.33-2.88,6.45-7.79,29.83-4.81,22.94-9.61,40l-.06.21q29.46,55.94,61.71,99.14C264.67,276.66,264.63,276.5,264.6,276.34ZM190.69,217q-27.13,82.32-49.2,112.83-5.52-10.44-10.31-21.69-.85,27.27-1.33,29.76-2.25,14.37-14.06,14.36l-.75,0,.69,1q11.52,15.93,24.74,15.93,19.16,0,38.81-36.94,13.53-25.2,32.74-79Q201.1,235.56,190.69,217Z"/><path class="cls-1" d="M141.5,79.73a11.45,11.45,0,0,1-.56,1,12.36,12.36,0,0,1-6.38,5.37c-.28.11-.57.21-.86.3.26-.36.53-.71.8-1A20.27,20.27,0,0,1,140.88,80C141.08,79.92,141.29,79.82,141.5,79.73Z"/><path class="cls-1" d="M324.51,80.1l-2.2.47a37.35,37.35,0,0,1-8,1.18,22.55,22.55,0,0,1-6.9-1,11.25,11.25,0,0,1,8.07-3.34A14.22,14.22,0,0,1,324.51,80.1Z"/><path class="cls-1" d="M314.32,331.2q0,20.19-16.44,20.2-10.44,0-22.22-10.63-9.82-9-26-31.12-7.72-10.69-15.22-21.77-6-29.64-10.77-68.35-6.08,18.06-11.66,33.7Q201.1,235.56,190.69,217q5-15.08,10.12-31.9,1.09-3.57,2.19-7.45,29.46,55.94,61.71,99.14a369.53,369.53,0,0,0,21.17,63.88q16.67-42.54,27.61-102.65-1.41,24.49-1.41,43.77,0,11.08,1.12,27.53T314.32,331.2Z"/><path class="cls-3" d="M131.18,308.17q-.85,27.27-1.33,29.76-2.25,14.37-14.06,14.36l-.75,0q-7.44-10.66-15.73-30.14-.14-4.67-.13-10.53a788,788,0,0,1,6.48-97.43Q113.48,266.67,131.18,308.17Z"/></g></g></svg>