<svg id="Capa_1" data-name="Capa 1" xmlns="http://www.w3.org/2000/svg" viewBox="0 0 1770.88 863.43"><defs><style>.cls-1{fill:red;}.cls-2{fill:#fff;}.cls-3{fill:#ea2d2d;}.cls-4{fill:#ef2495;}.cls-5{fill:#4824fc;}</style></defs><path class="cls-1" d="M480.65,130.22h-405a12,12,0,0,0-12,12v405a12,12,0,0,0,12,12h405a12,12,0,0,0,12-12v-405A12,12,0,0,0,480.65,130.22ZM388.13,210l-.37.08-1.83.39a37.35,37.35,0,0,1-8,1.18,23,23,0,0,1-6.57-.86l-.33-.1.29-.27a11.18,11.18,0,0,1,7.78-3.07,14.49,14.49,0,0,1,8.59,2.36ZM266.71,307.69q29.37,55.77,61.54,98.87l.08.11a369.53,369.53,0,0,0,21.17,63.88Q366.17,428,377.11,367.9c0,.26,0,.51,0,.76q-1.36,24-1.37,43,0,11.08,1.12,27.53l0,.37q.22,3.38.41,6.3c0,.42.05.83.08,1.24,0,.57.07,1.12.1,1.67s.05.81.07,1.21c.05.9.1,1.76.14,2.58.19,3.81.29,6.63.29,8.48q0,20.19-16.44,20.2-10.44,0-22.22-10.63-9.82-9-26-31.12-7.73-10.69-15.22-21.77l-.09-.46Q292,387.8,287.3,349.38q-6,17.94-11.59,33.5c0,.07,0,.13-.07.2q-10.87-17.59-21.23-36l-.1-.17q5-15.08,10.12-31.9,1.1-3.57,2.19-7.45ZM178.4,481.74Q171.08,471.12,163,452l0,0c0-.11,0-.21,0-.32q-.12-4.55-.12-10.21a788.44,788.44,0,0,1,6.47-97.34s0-.06,0-.09q7.82,52.5,25.52,94c0,.09,0,.19,0,.28q-.84,27-1.32,29.48-2.25,14.37-14.06,14.36l-.75,0C178.57,482,178.48,481.87,178.4,481.74Zm19.75-266.12a20.27,20.27,0,0,1,6.38-5.37c.2-.11.41-.21.62-.3a11.45,11.45,0,0,1-.56,1,12.36,12.36,0,0,1-6.38,5.37c-.28.11-.57.21-.86.3C197.61,216.3,197.88,216,198.15,215.62Z" transform="translate(-63.65 -130.22)"/><path class="cls-2" d="M162.94,451.71s0,0,0,0l0-.05c0,.22,0,.44,0,.65a89,89,0,0,0,1.2,13.8q3.25,14.9,14,15.66l.23,0h.23Q171.21,471.12,162.94,451.71ZM388.82,210.18c-.23-.2-.47-.41-.72-.6l-.37.08-.4.08-1.43.31a37.35,37.35,0,0,1-8,1.18,23.29,23.29,0,0,1-6.24-.76l-.34-.1-.32-.1c-.18.17-.35.35-.53.53a21.2,21.2,0,0,0-3.37,5q-4,8.09-7.33,27.38-14.07,80.94-14.06,174.3v11.07q-8.82-10.65-17.45-22.21a369.53,369.53,0,0,0,21.17,63.88q16.66-42.54,27.61-102.65,1.55-26.4,4.72-58.86,2.4-23.19,7.48-53.41,4.2-24.84,4.19-30.82Q393.47,214.5,388.82,210.18ZM287.27,349q-6.07,18.06-11.66,33.7l.1.17.11.16q10.79,17.49,22.1,34.14l.06.09.06.09Q292.06,387.72,287.27,349ZM234.49,240.6q-10.34-23.49-10.64-23.79-4.64-8.38-11.68-8.38a16.43,16.43,0,0,0-7,1.52,11.45,11.45,0,0,1-.56,1,12.36,12.36,0,0,1-6.38,5.37c-.28.11-.57.21-.86.3a35.42,35.42,0,0,0-3,4.93q-5.68,11.24-11.37,38.9-8.78,43.41-13.72,83.16,7.81,52.5,25.52,94,.22-7.09.47-15.87,2.83-98.74,18.4-154.85,19.28,41.58,40.64,79.58,5-15.08,10.12-31.9,1.1-3.57,2.19-7.45Q250.11,275.87,234.49,240.6Z" transform="translate(-63.65 -130.22)"/><path d="M191.92,183.59q-15.25-6.36-40.5-6.36-54.24,0-54.23,20.51,0,17.46,17,17.45a37,37,0,0,0,6.77-1,88.89,88.89,0,0,1,9-1.53v12.2q0,139.14,25.59,208.62,3.8,10.23,7.43,18.79l0,.09c0-.11,0-.21,0-.32s0-.21,0-.32c-.08-2.95-.11-6.25-.11-9.89a788,788,0,0,1,6.48-97.43c0-.09,0-.19,0-.28a611.59,611.59,0,0,1-6.16-89.77l.68-42.37a81.2,81.2,0,0,1,14.74,3.22q8.31,2.38,12.38,2.38a20.82,20.82,0,0,0,6.44-.91c.26-.36.53-.71.8-1a20.27,20.27,0,0,1,6.38-5.37c.2-.11.41-.21.62-.3a23.88,23.88,0,0,0,2-10.52Q207.17,190,191.92,183.59Zm253.19-.6q-15.25-8.13-38.3-8.13-45.42,0-45.42,19.83,0,12.81,9.12,16.11a5.89,5.89,0,0,0,.59.21l.3-.27.3-.27a11.11,11.11,0,0,1,7.47-2.8,14.84,14.84,0,0,1,8.16,2.07c.15.09.29.19.43.29s.27.19.4.29l.66-.14a51.79,51.79,0,0,1,5.79-.92q-5,90.81-17.47,159-1.41,24.5-1.41,43.77,0,11.08,1.12,27.53.22,3.38.41,6.3c0,.42.05.83.08,1.24,0,.57.07,1.12.1,1.67s.05.81.07,1.21c.05.9.1,1.76.14,2.58.22,4,.32,6.94.32,8.85q0,20.19-16.44,20.2-10.44,0-22.22-10.63-9.82-9-26-31.12-7.72-10.69-15.22-21.77,19.56,97.23,51.77,97.23,14.91,0,25.76-22.88Q417,404.33,428,212.65c2.6,1.13,4,1.7,4.07,1.7,1.36.56,3.16,1.18,5.42,1.86a22.38,22.38,0,0,0,6.44,1q5.76,0,10.51-5.09A16.07,16.07,0,0,0,459.18,201Q459.18,190.63,445.11,183ZM328.25,406.56q-12.47-52.87-12.45-115.44,0-1.37.17-7.21c.12-3.89.17-7.25.17-10.08q0-26.26-2.54-34.57-3.74-11.7-16.1-11.69-8.81,0-13.39,10.33-2.88,6.45-7.79,29.83-4.81,22.93-9.61,40l-.06.21q29.46,55.94,61.71,99.14C328.32,406.88,328.28,406.72,328.25,406.56Zm-73.91-59.31q-27.14,82.32-49.2,112.83-5.52-10.44-10.31-21.69-.86,27.27-1.33,29.76-2.25,14.37-14.06,14.36l-.75,0,.69,1q11.52,15.93,24.74,15.93,19.15,0,38.81-36.94,13.53-25.2,32.74-79Q264.75,365.78,254.34,347.25Z" transform="translate(-63.65 -130.22)"/><path class="cls-1" d="M205.15,210a11.45,11.45,0,0,1-.56,1,12.36,12.36,0,0,1-6.38,5.37c-.28.11-.57.21-.86.3.26-.36.53-.71.8-1a20.27,20.27,0,0,1,6.38-5.37C204.73,210.14,204.94,210,205.15,210Z" transform="translate(-63.65 -130.22)"/><path class="cls-1" d="M388.16,210.32l-2.2.47a37.35,37.35,0,0,1-8,1.18,22.55,22.55,0,0,1-6.9-1,11.25,11.25,0,0,1,8.07-3.34A14.22,14.22,0,0,1,388.16,210.32Z" transform="translate(-63.65 -130.22)"/><path class="cls-1" d="M378,461.42q0,20.19-16.44,20.2-10.44,0-22.22-10.63-9.82-9-26-31.12-7.72-10.69-15.22-21.77-6-29.64-10.77-68.35-6.07,18.06-11.66,33.7-10.92-17.67-21.33-36.2,5-15.08,10.12-31.9,1.1-3.57,2.19-7.45,29.46,55.94,61.71,99.14a369.53,369.53,0,0,0,21.17,63.88q16.67-42.54,27.61-102.65-1.41,24.5-1.41,43.77,0,11.08,1.12,27.53T378,461.42Z" transform="translate(-63.65 -130.22)"/><path class="cls-3" d="M194.83,438.39q-.86,27.27-1.33,29.76-2.25,14.37-14.06,14.36l-.75,0q-7.44-10.67-15.73-30.14-.14-4.67-.13-10.53a788,788,0,0,1,6.48-97.43Q177.13,396.89,194.83,438.39Z" transform="translate(-63.65 -130.22)"/><rect class="cls-4" x="335.47" y="484.9" width="1435.41" height="378.54" rx="12"/><path class="cls-5" d="M748.65,681.88a13.68,13.68,0,0,1-4,9.5q-4,4.32-8.93,4.32a19,19,0,0,1-5.48-.86c-1.92-.58-3.46-1.1-4.61-1.58-.1,0-1.25-.48-3.46-1.44q-9.36,162.9-44.5,237.81-9.23,19.46-21.9,19.45-35.73,0-53.15-140.73-22.9,68.13-37.74,95.79-16.71,31.4-33,31.4-11.24,0-21-13.54-9.36-13-20.31-42.5-21.75-59.06-21.75-177.31V691.82a74.18,74.18,0,0,0-7.63,1.29,31.54,31.54,0,0,1-5.77.87Q441,694,441,679.14q0-17.43,46.09-17.43,21.46,0,34.43,5.4t13,13.47q0,15.42-13.82,15.41-3.46,0-10.52-2a68.23,68.23,0,0,0-12.53-2.74l-.58,36q0,107.31,35.73,174.87,22.17-30.69,50.41-123,5-16.43,10.09-40.48,4.17-19.87,6.62-25.35,3.89-8.79,11.38-8.79,10.51,0,13.68,9.94,2.18,7.07,2.17,29.39c0,2.4-.05,5.25-.15,8.57s-.14,5.35-.14,6.12q0,87.57,28.66,152.83,30.25-77.21,38.32-222.41a57.67,57.67,0,0,0-7.35,1.3,32.05,32.05,0,0,1-6.77,1q-14.11,0-14.12-14.69,0-16.86,38.61-16.86,19.59,0,32.55,6.92Q748.65,673.09,748.65,681.88Z" transform="translate(-63.65 -130.22)"/><path class="cls-5" d="M747.06,826.35q0-22.9,9-41.2t25.06-28.23Q797.2,747,817.79,747q31.83,0,51.49,22T889,827.65v1.87q0,22.76-8.72,40.84a66.13,66.13,0,0,1-24.92,28.16q-16.2,10.08-37.23,10.08-31.7,0-51.35-22t-19.67-58.34Zm26.8,3.17q0,25.93,12,41.63t32.2,15.7q20.31,0,32.26-15.92t12-44.58q0-25.64-12.17-41.55t-32.34-15.92q-19.74,0-31.83,15.7T773.86,829.52Z" transform="translate(-63.65 -130.22)"/><path class="cls-5" d="M997.7,773.78a80,80,0,0,0-13.11-1q-26.22,0-35.58,22.32V905.72H922.37V749.86h25.92l.44,18Q961.83,747,985.89,747q7.77,0,11.81,2Z" transform="translate(-63.65 -130.22)"/><path class="cls-5" d="M1065.69,833.55,1049,851v54.74h-26.65V684.47H1049V818.29l14.26-17.15,48.54-51.28h32.41L1083.55,815l67.7,90.75H1120Z" transform="translate(-63.65 -130.22)"/><path class="cls-2" d="M1392.53,689.22q0,5.76-4,29.68-4.89,29.08-7.2,51.42-5.91,60.21-5.9,98.81,0,10.67,1.08,26.51t1.08,21q0,19.44-15.84,19.44-10,0-21.39-10.22-9.45-8.65-25-30-53.25-73.75-95.91-165.8-15,54-17.72,149.09-1.15,40.9-1.73,43.93Q1197.78,937,1186.4,937t-14.69-15.13q-1.31-6.2-1.3-24.05,0-77.49,19.45-173.86,5.46-26.66,10.94-37.46,6.5-12.66,17.17-12.67,6.78,0,11.25,8.07.29.29,10.24,22.9,49.1,110.91,107.12,180.92V875q0-89.88,13.54-167.81,3.17-18.59,7.05-26.36,4.33-8.5,11.53-8.5Q1392.53,672.37,1392.53,689.22Z" transform="translate(-63.65 -130.22)"/><path class="cls-2" d="M1422.78,826.35q0-22.9,9-41.2t25.06-28.23q16.07-9.93,36.66-9.94,31.83,0,51.5,22t19.66,58.63v1.87q0,22.76-8.71,40.84A66.26,66.26,0,0,1,1531,898.52q-16.21,10.08-37.24,10.08-31.69,0-51.35-22t-19.66-58.34Zm26.79,3.17q0,25.93,12,41.63t32.19,15.7q20.31,0,32.27-15.92t12-44.58q0-25.64-12.17-41.55t-32.34-15.92q-19.74,0-31.83,15.7T1449.57,829.52Z" transform="translate(-63.65 -130.22)"/><path class="cls-2" d="M1736.07,869l30-119.13h26.65l-45.37,155.86H1725.7L1687.82,787.6l-36.88,118.12h-21.61l-45.22-155.86h26.5l30.68,116.68,36.3-116.68h21.46Z" transform="translate(-63.65 -130.22)"/></svg>